<svg width="42" height="39" viewBox="0 0 42 39" fill="none" xmlns="http://www.w3.org/2000/svg">
<path fill-rule="evenodd" clip-rule="evenodd" d="M3.3754 34.2126H22.3812C23.2975 34.2126 24.1603 33.9568 24.8758 33.4729L36.497 21.7866C37.0076 21.2719 37.2892 20.5857 37.2892 19.8535C37.2892 19.1219 37.0075 18.4349 36.4963 17.9202C35.9853 17.4052 35.3031 17.1215 34.5768 17.1215C33.8499 17.1215 33.1684 17.4052 32.6572 17.9202L23.6858 26.9559L32.2839 9.91187C32.2913 9.89629 32.2906 9.8797 32.2968 9.86416C32.7197 9.37927 33.463 9.25566 34.0697 9.60968C34.4057 9.80532 34.6495 10.1143 34.754 10.4799C34.8552 10.8363 34.813 11.204 34.6338 11.5163C34.572 11.6239 34.5428 11.7413 34.5428 11.8568C34.5428 12.0935 34.6644 12.3238 34.8823 12.4504C35.206 12.6382 35.6214 12.5268 35.8095 12.2C36.1841 11.5479 37.0449 11.3401 37.7317 11.7392C38.4296 12.1453 38.6936 13.0068 38.3189 13.6596C38.1316 13.9872 38.2429 14.4049 38.5674 14.5936C38.6739 14.6558 38.7907 14.6851 38.906 14.6851C39.1409 14.6851 39.369 14.5627 39.4946 14.3433C39.4953 14.3425 39.4953 14.3412 39.4959 14.3406C40.7117 12.2186 41.0049 9.77785 40.3199 7.46928C39.6479 5.20292 38.1031 3.27163 35.971 2.03154C31.5216 -0.555158 26.0996 0.797662 23.6247 5.1114C23.624 5.1127 23.624 5.1135 23.6233 5.11425C23.436 5.4416 23.5473 5.85933 23.8718 6.04804C24.1969 6.2367 24.6109 6.12393 24.799 5.79768C25.173 5.14433 26.0453 4.94323 26.7437 5.35008C27.0804 5.54551 27.3235 5.85442 27.4279 6.22037C27.5298 6.57644 27.4877 6.9455 27.3091 7.25726C27.2473 7.36457 27.2182 7.48221 27.2182 7.5986C27.2182 7.83493 27.3397 8.0648 27.5576 8.1913C27.8813 8.37917 28.2967 8.26774 28.4848 7.94094C28.8595 7.28809 29.7208 7.08103 30.4077 7.48016C30.7438 7.67579 30.9868 7.98474 31.0913 8.3504C31.1931 8.70677 31.151 9.07527 30.9725 9.38679C30.9236 9.47154 30.9005 9.56327 30.891 9.65555L21.2606 28.7435H3.3754C1.87808 28.7435 0.660296 29.9699 0.660296 31.4779C0.660296 32.986 1.87808 34.2126 3.3754 34.2126ZM31.0865 6.29475C30.3568 5.87101 29.5178 5.80725 28.7848 6.05216C28.7705 5.98168 28.7529 5.9112 28.7332 5.84094C28.5309 5.1332 28.0653 4.53789 27.4233 4.16472C27.1123 3.98408 26.7831 3.86795 26.4505 3.81171C28.8221 1.8128 32.3117 1.48058 35.2936 3.21489C38.2761 4.94945 39.7348 8.15837 39.202 11.2274C38.9882 10.9648 38.7228 10.7349 38.4119 10.5546C37.9626 10.2933 37.4718 10.1697 36.9905 10.1697C36.6899 10.1697 36.3925 10.2174 36.1109 10.3118C36.0966 10.2415 36.079 10.171 36.0593 10.1005C35.8562 9.3938 35.392 8.79824 34.7492 8.42503C34.0188 8.00104 33.1799 7.93758 32.4475 8.18223C32.4332 8.11196 32.4156 8.04149 32.3959 7.97101C32.1936 7.26348 31.7286 6.66872 31.0865 6.29475ZM3.3754 30.1106H22.4729L33.617 18.8869C34.1255 18.3727 35.0254 18.374 35.5366 18.8869C35.7912 19.1437 35.9317 19.4871 35.9317 19.8535C35.9317 20.2205 35.7918 20.5636 35.5366 20.8199L24.0666 32.3723C23.5854 32.682 23.0043 32.8453 22.3812 32.8453H3.3754C2.62674 32.8453 2.01792 32.2321 2.01792 31.4779C2.01792 30.724 2.62674 30.1106 3.3754 30.1106ZM40.25 36.9115L38.249 34.8963L32.4793 29.0854L41.163 20.3395C41.4284 20.0723 41.4284 19.64 41.163 19.3728C40.8976 19.1056 40.4686 19.1056 40.2032 19.3728L24.7902 34.8963H1.314H0.63526V38.3143H39.6738C39.6886 38.3143 39.7023 38.3089 39.7172 38.3076L40.2039 38.7977C40.3356 38.9311 40.5093 38.998 40.683 38.998C40.8569 38.998 41.0306 38.9311 41.163 38.7977C41.4284 38.5305 41.4284 38.0984 41.163 37.831L40.25 36.9115ZM31.5197 30.052L36.3294 34.8963H26.7098L31.5197 30.052ZM1.99275 36.947V36.2633H25.3522H37.687L38.3657 36.947H1.99275ZM5.38673 8.91798H6.79104C6.91529 9.91469 7.30623 10.8267 7.88998 11.5827L6.89426 12.5848C6.62885 12.8523 6.62885 13.2843 6.89426 13.5515C7.02666 13.685 7.20037 13.7518 7.37408 13.7518C7.54792 13.7518 7.72164 13.685 7.85408 13.5515L8.8498 12.5493C9.60057 13.1374 10.506 13.5311 11.495 13.6562V15.0707C11.495 15.4488 11.7991 15.7544 12.1737 15.7544C12.5484 15.7544 12.8525 15.4488 12.8525 15.0707V13.6562C13.8415 13.5311 14.7469 13.1374 15.4977 12.5493L16.4936 13.5515C16.6258 13.685 16.7997 13.7518 16.9734 13.7518C17.1471 13.7518 17.3209 13.685 17.4532 13.5515C17.7187 13.2843 17.7187 12.8523 17.4532 12.5848L16.4575 11.5827C17.0413 10.8267 17.4323 9.91469 17.5565 8.91798H18.9623C19.3369 8.91798 19.641 8.61243 19.641 8.23431C19.641 7.85618 19.3369 7.55063 18.9623 7.55063H17.5578C17.4336 6.55389 17.0426 5.6419 16.4589 4.88569L17.4546 3.88353C17.72 3.61632 17.72 3.18431 17.4546 2.91686C17.1892 2.64965 16.7603 2.64965 16.4948 2.91686L15.4991 3.91927C14.7483 3.33123 13.8429 2.93756 12.8539 2.8124V1.39788C12.8539 1.01976 12.5498 0.714208 12.1751 0.714208C11.8004 0.714208 11.4964 1.01976 11.4964 1.39788V2.8124C10.5074 2.93756 9.60193 3.33123 8.8512 3.91927L7.85544 2.91686C7.58994 2.64965 7.16103 2.64965 6.89562 2.91686C6.63022 3.18431 6.63022 3.61632 6.89562 3.88353L7.89139 4.88569C7.30623 5.6419 6.91529 6.55389 6.79104 7.55063H5.38673C5.01203 7.55063 4.70786 7.85618 4.70786 8.23431C4.70786 8.61243 5.01203 8.91798 5.38673 8.91798ZM12.1744 4.13255C14.4206 4.13255 16.2472 5.9721 16.2472 8.23431C16.2472 10.4965 14.4206 12.336 12.1744 12.336C9.92841 12.336 8.10184 10.4965 8.10184 8.23431C8.10184 5.9721 9.92841 4.13255 12.1744 4.13255Z" fill="#ED7E00"/>
</svg>
