<svg width="40" height="40" viewBox="0 0 40 40" fill="none" xmlns="http://www.w3.org/2000/svg">
<path fill-rule="evenodd" clip-rule="evenodd" d="M3.50323 4.88013C2.80594 2.04256 3.00563 1.56906 3.33867 1.24461C3.53036 1.058 4.04257 0.897056 4.47266 1.40971C7.56909 5.09962 28.2256 31.9839 29.6367 34.1212C30.3222 35.1592 30.2977 36.5136 29.5731 37.656C28.8589 38.7815 27.6293 39.4112 26.4406 39.2602C25.8195 39.1814 24.9011 38.852 24.052 37.7332C22.7166 35.9729 21.0453 32.5715 19.4293 29.2819L19.4279 29.2792C18.2273 26.8356 16.9907 24.3189 15.989 22.6967C15.8213 22.7985 15.6872 22.8778 15.5615 22.9519C15.2034 23.1629 14.8943 23.3453 13.9674 23.9707C13.627 24.2006 13.2331 24.2946 12.8283 24.243C12.7797 24.2369 12.729 24.2317 12.676 24.2262C11.8269 24.1393 10.4199 23.9953 8.29201 18.7807C7.18102 16.058 3.92093 6.57995 3.50323 4.88013ZM26.6307 37.7982C27.2448 37.8763 27.9041 37.5129 28.3102 36.8725C28.6331 36.3635 28.8233 35.585 28.3884 34.9267C27.0175 32.8506 9.2651 9.63986 5.53558 4.89697C5.48445 4.83197 5.43059 4.7597 5.37738 4.68829C5.07156 4.27791 4.78682 3.89582 5.16191 5.08433C6.29719 8.68226 10.2219 19.6365 11.6118 21.5014C11.8267 21.7898 11.9901 22.0301 12.1222 22.2245C12.5206 22.8106 12.6345 22.9782 13.0185 22.7817C13.0566 22.7863 13.0825 22.7832 13.1267 22.7537C13.7867 22.3083 14.5667 21.8307 15.1539 21.4711C15.425 21.3051 15.655 21.1643 15.8131 21.0634C15.9667 20.9655 16.1437 20.9302 16.3122 20.9517C16.5172 20.9779 16.71 21.0875 16.8348 21.2697C17.9537 22.905 19.3214 25.6889 20.7696 28.6365L20.7704 28.6382L20.7729 28.6432C22.3575 31.8685 23.9957 35.2028 25.2446 36.8487C25.6693 37.4085 26.1488 37.7368 26.6307 37.7982ZM38.3717 8.50032C38.6669 8.21682 39.139 8.22383 39.4256 8.5159C39.7123 8.80822 39.7052 9.27446 39.41 9.55796C37.5292 11.3617 35.7701 13.1252 34.3533 14.5455L34.3301 14.5689L34.2752 14.6238C33.3737 15.5274 32.6601 16.2428 32.1533 16.7287C31.3434 17.5057 30.1027 17.8799 28.7492 17.7555C28.6141 17.743 28.4794 17.726 28.3457 17.7039C27.3085 17.5336 26.3213 17.0788 25.4863 16.3915L21.245 20.5208C21.0683 20.6902 20.8287 20.756 20.6032 20.719C20.4515 20.6938 20.3061 20.6226 20.1908 20.5052C19.9041 20.2131 19.9112 19.7466 20.2067 19.4634L24.4449 15.337C22.3698 12.8633 22.2228 10.1807 24.1273 8.3539L31.579 1.20676C31.8745 0.923516 32.3462 0.930488 32.6329 1.22256C32.9196 1.51437 32.9126 1.98087 32.617 2.26441L26.1418 8.47495L27.431 9.75028L33.4228 4.00338C33.718 3.72013 34.19 3.7271 34.4768 4.01917C34.7635 4.31098 34.7564 4.77773 34.4609 5.06102L28.4846 10.7929L29.8083 12.1022L35.7646 6.38923C36.0603 6.10594 36.5321 6.11295 36.8188 6.40502C37.1055 6.69709 37.0984 7.16358 36.8029 7.44712L30.8623 13.1448L32.2681 14.5357C32.5702 14.234 32.9039 13.8997 33.2684 13.534C34.6943 12.1042 36.469 10.3251 38.3717 8.50032ZM26.0571 14.9094C26.8353 15.7021 27.8407 16.1917 28.8871 16.2879C29.7926 16.3713 30.6253 16.1404 31.1149 15.6713C31.1468 15.6407 31.1795 15.6094 31.213 15.5767L25.0745 9.50407C23.4956 11.137 24.5332 13.3565 26.0571 14.9094ZM15.7866 26.2378C16.06 25.9336 16.5311 25.9061 16.839 26.1764C17.1467 26.4465 17.1744 26.9124 16.901 27.2164C14.7269 29.6347 8.61885 36.3192 6.49641 38.18C5.64863 38.9232 4.59852 39.1285 3.61253 38.9668C2.72639 38.8214 1.89223 38.3793 1.30322 37.7643C0.260768 36.6763 -0.271486 34.7212 1.65921 32.7918C4.31025 30.1434 8.17251 27.1444 11.0796 24.9773C11.4083 24.7323 11.8757 24.7972 12.1235 25.1219C12.3714 25.4469 12.3058 25.9089 11.9771 26.1541C9.10694 28.2935 5.30187 31.2482 2.71895 33.8284C1.7017 34.8451 1.58014 35.9105 2.3857 36.7515C3.15579 37.5554 4.59405 37.8786 5.50707 37.078C7.34386 35.4676 12.787 29.5743 15.7866 26.2378Z" fill="#ED7E00"/>
</svg>
