<svg width="39" height="39" viewBox="0 0 39 39" fill="none" xmlns="http://www.w3.org/2000/svg">
<path fill-rule="evenodd" clip-rule="evenodd" d="M36.3392 34.45H38.2666C38.652 34.45 38.909 34.705 38.9089 35.0878V37.6397C38.9089 38.0225 38.652 38.2775 38.2666 38.2775H1.00605C0.620525 38.2775 0.363578 38.0225 0.363578 37.6397V35.0878C0.363578 34.705 0.620525 34.45 1.00605 34.45H2.93338V0.637768C2.93338 0.25498 3.19028 -4.39882e-05 3.57572 -4.39882e-05H35.6969C36.0823 -4.39882e-05 36.3392 0.25498 36.3392 0.637768V34.45ZM35.0544 1.27579H4.21819V34.45H13.8545V27.4324C13.8545 27.0496 14.1114 26.7944 14.4968 26.7944H19.6362H24.7757C25.1611 26.7944 25.418 27.0496 25.418 27.4324V34.45H35.0544V1.27579ZM15.1393 28.0702V34.45H18.9939V28.0702H15.1393ZM24.1333 28.0702H20.2787V34.45H24.1333V28.0702ZM1.64844 35.7258V37.0017H37.6241H37.6242V35.7258H35.697H24.7758H19.6364H14.4969H3.57572H1.64844ZM7.43034 3.18973H12.5696C12.9551 3.18973 13.2121 3.44496 13.2121 3.82775V7.65559C13.2121 8.03808 12.9552 8.29336 12.5696 8.29336H7.43034C7.04477 8.29336 6.78787 8.03808 6.78787 7.65559V3.82775C6.78787 3.44496 7.04477 3.18973 7.43034 3.18973ZM8.07269 7.01753H11.9272V4.46556H8.07269V7.01753ZM7.43034 10.2073H12.5696C12.9551 10.2073 13.2121 10.4625 13.2121 10.8453V14.6731C13.2121 15.0559 12.9552 15.3109 12.5696 15.3109H7.43034C7.04477 15.3109 6.78787 15.0559 6.78787 14.6731V10.8453C6.78787 10.4625 7.04477 10.2073 7.43034 10.2073ZM8.07269 14.0351H11.9272V11.4834H8.07269V14.0351ZM22.206 15.3109H17.0666C16.6812 15.3109 16.4241 15.0559 16.4241 14.6731V10.8453C16.4241 10.4625 16.6812 10.2073 17.0666 10.2073H22.206C22.5914 10.2073 22.8484 10.4625 22.8484 10.8453V14.6731C22.8484 15.0559 22.5914 15.3109 22.206 15.3109ZM21.5635 11.4834H17.7091V14.0351H21.5635V11.4834ZM31.8423 15.3109H26.7028C26.3174 15.3109 26.0605 15.0559 26.0605 14.6731V10.8453C26.0605 10.4625 26.3174 10.2073 26.7028 10.2073H31.8423C32.2277 10.2073 32.4847 10.4625 32.4847 10.8453V14.6731C32.4847 15.0559 32.2277 15.3109 31.8423 15.3109ZM31.1999 11.4834H27.3453V14.0351H31.1999V11.4834ZM22.206 22.3288H17.0666C16.6812 22.3288 16.4241 22.0735 16.4241 21.6907V17.8629C16.4241 17.4801 16.6812 17.2251 17.0666 17.2251H22.206C22.5914 17.2251 22.8484 17.4801 22.8484 17.8629V21.6907C22.8484 22.0735 22.5914 22.3288 22.206 22.3288ZM21.5635 18.501H17.7091V21.0526H21.5635V18.501ZM31.8423 22.3288H26.7028C26.3174 22.3288 26.0605 22.0735 26.0605 21.6907V17.8629C26.0605 17.4801 26.3174 17.2251 26.7028 17.2251H31.8423C32.2277 17.2251 32.4847 17.4801 32.4847 17.8629V21.6907C32.4847 22.0735 32.2277 22.3288 31.8423 22.3288ZM31.1999 18.501H27.3453V21.0526H31.1999V18.501ZM7.43034 17.2248H12.5696C12.9551 17.2248 13.2121 17.4801 13.2121 17.8629V21.6907C13.2121 22.0735 12.9552 22.3285 12.5696 22.3285H7.43034C7.04477 22.3285 6.78787 22.0735 6.78787 21.6907V17.8629C6.78787 17.4801 7.04477 17.2248 7.43034 17.2248ZM8.07269 21.0526H11.9272V18.501H8.07269V21.0526ZM22.206 8.29336H17.0666C16.6812 8.29336 16.4241 8.03808 16.4241 7.65559V3.82775C16.4241 3.44496 16.6812 3.18973 17.0666 3.18973H22.206C22.5914 3.18973 22.8484 3.44496 22.8484 3.82775V7.65559C22.8484 8.03834 22.5914 8.29336 22.206 8.29336ZM21.5635 4.46556H17.7091V7.01753H21.5635V4.46556ZM31.8423 8.29336H26.7028C26.3174 8.29336 26.0605 8.03808 26.0605 7.65559V3.82775C26.0605 3.44496 26.3174 3.18973 26.7028 3.18973H31.8423C32.2277 3.18973 32.4847 3.44496 32.4847 3.82775V7.65559C32.4847 8.03834 32.2277 8.29336 31.8423 8.29336ZM31.1999 4.46556H27.3453V7.01753H31.1999V4.46556ZM23.4909 25.5185H15.7818C15.3963 25.5185 15.1393 25.2633 15.1394 24.8805C15.1394 24.4977 15.3963 24.2426 15.7818 24.2426H23.4909C23.8763 24.2426 24.1332 24.4977 24.1332 24.8805C24.1332 25.2633 23.8763 25.5185 23.4909 25.5185Z" fill="#ED7E00"/>
</svg>
