<svg width="48" height="39" viewBox="0 0 48 39" fill="none" xmlns="http://www.w3.org/2000/svg">
<path fill-rule="evenodd" clip-rule="evenodd" d="M7.99989 32.8009C7.99989 31.9402 8.71981 31.236 9.59986 31.236C10.4799 31.236 11.1999 31.9402 11.1999 32.8009C11.1999 33.6615 10.4799 34.3657 9.59986 34.3657C8.71981 34.3657 7.99989 33.6615 7.99989 32.8009ZM28.7998 32.8009C28.7998 31.9402 29.5198 31.236 30.3999 31.236C31.2798 31.236 31.9998 31.9402 31.9998 32.8009C31.9998 33.6615 31.2799 34.3657 30.3999 34.3657C29.5198 34.3657 28.7998 33.6615 28.7998 32.8009ZM47.1999 22.6295H44.7999V20.2823C44.7999 19.8127 44.4799 19.4999 43.9999 19.4999C43.5199 19.4999 43.1999 19.8127 43.1999 20.2823V22.6295H39.9999V3.77351C39.9999 2.05241 38.6399 0.722168 36.9599 0.722168H3.11991C1.3599 0.722168 -0.00012207 2.05241 -0.00012207 3.77351V22.6295V24.1944V30.8447C-0.00012207 32.3312 1.27993 33.5833 2.79993 33.5833H4.05647C4.43846 36.2562 6.75202 38.2777 9.59997 38.2777C12.448 38.2777 14.7615 36.2562 15.1435 33.5833H24.8565C25.2385 36.2562 27.552 38.2777 30.4 38.2777C33.2479 38.2777 35.5615 36.2562 35.9435 33.5833H39.9999V24.1944H47.1999C47.68 24.1944 48 23.8813 48 23.4119C47.9999 22.9426 47.6799 22.6295 47.1999 22.6295ZM1.5999 16.3703H12.8C13.28 16.3703 13.5999 16.0575 13.5999 15.5879C13.5999 15.1185 13.28 14.8055 12.8 14.8055H1.5999V12.4583H9.59986C10.0798 12.4583 10.3998 12.1455 10.3998 11.6761C10.3998 11.2065 10.0798 10.8937 9.59986 10.8937H1.5999V3.77351C1.5999 2.91284 2.23995 2.28697 3.11991 2.28697H36.8798C37.7599 2.28697 38.3998 2.99111 38.3998 3.77351V22.6295H1.5999V16.3703ZM9.59986 36.7129C7.35994 36.7129 5.59983 34.9915 5.59983 32.8006C5.59983 30.6099 7.35979 28.8886 9.59986 28.8886C11.8398 28.8886 13.5999 30.6099 13.5999 32.8006C13.5999 34.9915 11.8398 36.7129 9.59986 36.7129ZM30.3999 36.7129C28.1599 36.7129 26.3998 34.9915 26.3998 32.8006C26.3998 30.6099 28.1598 28.8886 30.3999 28.8886C32.6398 28.8886 34.3999 30.6099 34.3999 32.8006C34.3998 34.9915 32.6398 36.7129 30.3999 36.7129ZM38.3998 32.0185H35.9433C35.5613 29.3452 33.2477 27.324 30.3998 27.324C30.3868 27.324 30.3741 27.3248 30.3611 27.3248C30.3473 27.3248 30.3336 27.324 30.3198 27.324C27.5198 27.324 25.1999 29.3581 24.7998 32.0185H15.1434C14.7852 29.5115 12.7284 27.5793 10.1252 27.3481C10.1061 27.3463 10.0868 27.3455 10.0677 27.344C10.0022 27.3388 9.93677 27.3333 9.87052 27.3305C9.78081 27.3263 9.69064 27.3237 9.59986 27.3237C9.50913 27.3237 9.41891 27.3263 9.32921 27.3305C9.26306 27.3333 9.19763 27.3388 9.13204 27.344C9.11292 27.3455 9.09359 27.3463 9.07456 27.3481C6.47142 27.5793 4.41454 29.5115 4.05637 32.0185H2.79993C2.15993 32.0185 1.5999 31.4706 1.5999 30.8447V24.1944H38.3998V32.0185Z" fill="#ED7E00"/>
</svg>
