<?xml version="1.0" standalone="no"?>
<!DOCTYPE svg PUBLIC "-//W3C//DTD SVG 20010904//EN"
 "http://www.w3.org/TR/2001/REC-SVG-20010904/DTD/svg10.dtd">
<svg version="1.0" xmlns="http://www.w3.org/2000/svg"
 width="217.000000pt" height="217.000000pt" viewBox="0 0 217.000000 217.000000"
 preserveAspectRatio="xMidYMid meet">
<metadata>
Created by potrace 1.11, written by Peter Selinger 2001-2013
</metadata>
<g transform="translate(0.000000,217.000000) scale(0.100000,-0.100000)"
fill="#000000" stroke="none">
<path d="M120 1085 l0 -1086 478 1 c263 1 498 6 523 10 24 5 58 10 74 13 62 9
187 49 260 82 278 127 469 360 554 675 53 200 48 456 -15 660 -110 362 -383
609 -774 702 -78 19 -125 21 -592 24 l-508 4 0 -1085z m1020 741 c309 -84 490
-350 491 -726 1 -126 -8 -198 -38 -300 -61 -213 -186 -357 -372 -429 -110 -42
-144 -46 -436 -46 l-260 0 -1 755 c0 415 1 758 3 761 1 4 125 6 275 4 224 -1
285 -5 338 -19z"/>
</g>
</svg>
